<?xml version="1.0" encoding="UTF-8"?>
<svg xmlns="http://www.w3.org/2000/svg" xmlns:xlink="http://www.w3.org/1999/xlink" viewBox="0 0 96 96" width="96px" height="96px">
<g id="surface2169224">
<path style=" stroke:none;fill-rule:nonzero;fill:rgb(38.82353%,56.862748%,93.333334%);fill-opacity:1;" d="M 22 36 C 15.371094 36 10 41.371094 10 48 C 10 54.628906 15.371094 60 22 60 C 28.628906 60 34 54.628906 34 48 C 34 41.371094 28.628906 36 22 36 Z M 74 10 C 67.371094 10 62 15.371094 62 22 C 62 28.628906 67.371094 34 74 34 C 80.628906 34 86 28.628906 86 22 C 86 15.371094 80.628906 10 74 10 Z M 74 62 C 67.371094 62 62 67.371094 62 74 C 62 80.628906 67.371094 86 74 86 C 80.628906 86 86 80.628906 86 74 C 86 67.371094 80.628906 62 74 62 Z M 74 62 "/>
<path style=" stroke:none;fill-rule:nonzero;fill:rgb(38.82353%,56.862748%,93.333334%);fill-opacity:1;" d="M 77.050781 24.585938 L 70.949219 19.414062 L 50.144531 44 L 22 44 L 22 52 L 50.144531 52 L 70.949219 76.585938 L 77.050781 71.414062 L 57.238281 48 Z M 77.050781 24.585938 "/>
</g>
</svg>
